<svg width="58" height="58" viewBox="0 0 58 58" fill="none" xmlns="http://www.w3.org/2000/svg">
<path d="M5.09375 25.265C5.0975 24.8262 5.30562 14.4762 17.75 14.4687H45.8394L40.4656 19.8425C40.0419 20.2662 39.7794 20.8531 39.7794 21.5C39.7794 22.7956 40.8294 23.8456 42.125 23.8456C42.7737 23.8456 43.3588 23.5831 43.7844 23.1575L53.1594 13.7825C53.1819 13.76 53.1894 13.7281 53.21 13.7056C53.3956 13.5125 53.5475 13.2875 53.6581 13.0381L53.6637 13.0231V13.0175C53.7594 12.7737 53.8137 12.4925 53.8137 12.1962C53.8137 12.0631 53.8025 11.9337 53.7819 11.8062L53.7838 11.8194C53.7688 11.7087 53.75 11.6131 53.7256 11.5194L53.7294 11.5362C53.6319 11.1181 53.4331 10.7562 53.1575 10.4656L53.1594 10.4675L43.7844 1.0925C43.3606 0.666873 42.7737 0.404373 42.125 0.404373C40.8294 0.404373 39.7794 1.45437 39.7794 2.75C39.7794 3.39687 40.0419 3.98375 40.4656 4.4075L45.8413 9.78125H17.7481C4.10937 9.79062 0.441875 19.895 0.40625 25.235C0.40625 25.2387 0.40625 25.2444 0.40625 25.25C0.40625 26.54 1.44688 27.5862 2.735 27.5937H2.75C4.03812 27.5937 5.08438 26.5531 5.09375 25.265ZM55.2762 30.4119C54.0087 30.4625 52.9887 31.46 52.9081 32.7162V32.7237C52.8894 33.8281 52.3775 43.5256 40.2519 43.5331H12.1625L17.5344 38.1612C17.96 37.7375 18.2225 37.1506 18.2225 36.5019C18.2225 35.2062 17.1725 34.1562 15.8769 34.1562C15.23 34.1562 14.6431 34.4187 14.2194 34.8425L4.84438 44.2175C4.82188 44.24 4.81437 44.2719 4.79375 44.2944C4.60625 44.4875 4.4525 44.7144 4.34187 44.9637L4.33625 44.9787V44.9844C4.265 45.1587 4.21438 45.3594 4.19938 45.5694V45.5769C4.19375 45.6387 4.19188 45.7119 4.19188 45.7831C4.19188 45.9237 4.20125 46.0625 4.22188 46.1975L4.22 46.1825C4.29312 46.7075 4.51812 47.1706 4.84812 47.5362L4.84625 47.5344L14.2213 56.9094C14.645 57.3331 15.2319 57.5956 15.8787 57.5956C17.1744 57.5956 18.2244 56.5456 18.2244 55.25C18.2244 54.6012 17.9619 54.0162 17.5362 53.5906L12.1625 48.2187H40.2538C53.8944 48.2075 57.5638 38.1031 57.5975 32.765C57.5975 32.7612 57.5975 32.7556 57.5975 32.7519C57.5975 31.4675 56.5625 30.425 55.28 30.4119H55.2762Z" fill="#3D58A4"/>
</svg>
